<?xml version="1.0" encoding="UTF-8" standalone="no"?><!DOCTYPE svg PUBLIC "-//W3C//DTD SVG 1.1//EN" "http://www.w3.org/Graphics/SVG/1.1/DTD/svg11.dtd"><svg width="100%" height="100%" viewBox="0 0 29 33" version="1.1" xmlns="http://www.w3.org/2000/svg" xmlns:xlink="http://www.w3.org/1999/xlink" xml:space="preserve" xmlns:serif="http://www.serif.com/" style="fill-rule:evenodd;clip-rule:evenodd;stroke-linejoin:round;stroke-miterlimit:1.41421;"><path id="cs" d="M1.491,16.667c-0.607,-1.817 -0.95,-3.873 -0.95,-6.05c0,-4.044 1.182,-7.671 3.047,-10.122c-0.02,0.274 -0.03,0.551 -0.03,0.831c0,2.892 1.117,5.526 2.944,7.491c2.192,-1.639 4.913,-2.61 7.858,-2.61c2.965,0 5.702,0.984 7.902,2.643c1.801,-1.961 2.901,-4.575 2.901,-7.444c0,-0.28 -0.011,-0.557 -0.031,-0.831c1.865,2.452 3.047,6.078 3.047,10.122c0,2.165 -0.339,4.21 -0.94,6.02c0.174,0.851 0.265,1.732 0.265,2.634c0,7.254 -5.89,13.144 -13.144,13.144c-7.254,0 -13.144,-5.89 -13.144,-13.144c0,-0.92 0.095,-1.817 0.275,-2.684Zm8.398,13.199c0.236,-2.26 2.149,-4.025 4.471,-4.025c2.322,0 4.236,1.765 4.471,4.025c-0.773,-1.698 -2.485,-2.88 -4.471,-2.88c-1.986,0 -3.698,1.182 -4.471,2.88Zm-4.186,-11.704c2.261,1.766 5.086,2.843 8.159,2.913l-2.52,4.118l-5.639,-7.031Zm17.314,0c-2.261,1.766 -5.086,2.843 -8.159,2.913l2.52,4.118l5.639,-7.031Z" style="fill:#fff;fill-opacity:0.796078;"/></svg>