<?xml version="1.0" encoding="UTF-8" standalone="no"?><!DOCTYPE svg PUBLIC "-//W3C//DTD SVG 1.1//EN" "http://www.w3.org/Graphics/SVG/1.1/DTD/svg11.dtd"><svg width="100%" height="100%" viewBox="0 0 33 33" version="1.1" xmlns="http://www.w3.org/2000/svg" xmlns:xlink="http://www.w3.org/1999/xlink" xml:space="preserve" xmlns:serif="http://www.serif.com/" style="fill-rule:evenodd;clip-rule:evenodd;stroke-linejoin:round;stroke-miterlimit:1.41421;"><path id="duration" d="M16.893,0.495c8.83,0 16,7.169 16,16c0,8.831 -7.17,16 -16,16c-8.831,0 -16,-7.169 -16,-16c0,-8.831 7.169,-16 16,-16Zm0,5.339c5.884,0 10.661,4.777 10.661,10.661c0,5.884 -4.777,10.661 -10.661,10.661c-5.884,0 -10.662,-4.777 -10.662,-10.661c0,-5.884 4.778,-10.661 10.662,-10.661Zm-1.484,4.517l2.364,0l0,5.191l6.399,5.728l-1.59,1.776l-7.173,-6.421l0.004,-0.004l-0.004,0l0,-6.27Z" style="fill:#fff;fill-opacity:0.796078;"/></svg>