<?xml version="1.0" encoding="UTF-8" standalone="no"?><!DOCTYPE svg PUBLIC "-//W3C//DTD SVG 1.1//EN" "http://www.w3.org/Graphics/SVG/1.1/DTD/svg11.dtd"><svg width="100%" height="100%" viewBox="0 0 28 33" version="1.1" xmlns="http://www.w3.org/2000/svg" xmlns:xlink="http://www.w3.org/1999/xlink" xml:space="preserve" xmlns:serif="http://www.serif.com/" style="fill-rule:evenodd;clip-rule:evenodd;stroke-linejoin:round;stroke-miterlimit:1.41421;"><path id="gold" d="M11.822,31.929c-0.778,0.369 -1.598,0.566 -2.444,0.566c-5.102,0 -9.244,-7.169 -9.244,-16c0,-8.831 4.142,-16 9.244,-16c0.846,0 1.666,0.197 2.444,0.566c-3.917,1.857 -6.8,8.068 -6.8,15.434c0,7.366 2.883,13.577 6.8,15.434Zm6.8,-31.434c5.102,0 9.244,7.169 9.244,16c0,8.831 -4.142,16 -9.244,16c-5.102,0 -9.244,-7.169 -9.244,-16c0,-8.831 4.142,-16 9.244,-16Z" style="fill:#292929;fill-opacity:0.905882;"/></svg>