<?xml version="1.0" encoding="UTF-8" standalone="no"?><!DOCTYPE svg PUBLIC "-//W3C//DTD SVG 1.1//EN" "http://www.w3.org/Graphics/SVG/1.1/DTD/svg11.dtd"><svg width="100%" height="100%" viewBox="0 0 37 33" version="1.1" xmlns="http://www.w3.org/2000/svg" xmlns:xlink="http://www.w3.org/1999/xlink" xml:space="preserve" xmlns:serif="http://www.serif.com/" style="fill-rule:evenodd;clip-rule:evenodd;stroke-linejoin:round;stroke-miterlimit:1.41421;"><path id="kills" d="M18.263,13.3l5.294,-4.675c0,0 -2.198,-2.062 -3.412,-3.202c-0.202,-0.189 -0.316,-0.454 -0.313,-0.731c0.002,-0.277 0.12,-0.541 0.324,-0.727c0.202,-0.183 0.416,-0.378 0.611,-0.555c0.382,-0.347 0.965,-0.347 1.347,0.001c1.206,1.101 3.613,3.298 3.613,3.298c0,0 5.366,-4.739 6.726,-5.94c0.176,-0.156 0.442,-0.153 0.614,0.007c0.677,0.627 2.31,2.138 3.063,2.836c0.103,0.095 0.163,0.228 0.166,0.369c0.003,0.14 -0.05,0.276 -0.149,0.376c-1.387,1.412 -6.145,6.254 -6.145,6.254c0,0 2.131,1.945 3.323,3.033c0.206,0.188 0.326,0.451 0.333,0.728c0.007,0.278 -0.1,0.547 -0.295,0.744c-0.231,0.234 -0.484,0.49 -0.71,0.718c-0.379,0.383 -0.994,0.395 -1.386,0.026c-1.16,-1.088 -3.342,-3.136 -3.342,-3.136l-4.792,4.877l11.617,10.259l-0.149,4.557l-6.572,0.078l-9.766,-9.938l-9.765,9.938l-6.572,-0.078l-0.15,-4.557l11.617,-10.259l-4.791,-4.877c0,0 -2.176,2.042 -3.337,3.132c-0.396,0.371 -1.015,0.359 -1.396,-0.026c-0.23,-0.233 -0.487,-0.493 -0.721,-0.729c-0.191,-0.194 -0.295,-0.457 -0.288,-0.729c0.007,-0.272 0.124,-0.529 0.325,-0.713c1.19,-1.085 3.34,-3.048 3.34,-3.048c0,0 -4.831,-4.916 -6.177,-6.285c-0.09,-0.092 -0.139,-0.217 -0.136,-0.346c0.003,-0.128 0.058,-0.25 0.152,-0.338c0.719,-0.666 2.324,-2.152 3.041,-2.816c0.203,-0.188 0.516,-0.192 0.724,-0.008c1.444,1.275 6.671,5.891 6.671,5.891c0,0 2.407,-2.197 3.613,-3.298c0.382,-0.348 0.965,-0.348 1.347,-0.001c0.184,0.167 0.386,0.351 0.577,0.525c0.214,0.194 0.336,0.468 0.338,0.757c0.003,0.288 -0.116,0.565 -0.326,0.762c-1.221,1.146 -3.379,3.171 -3.379,3.171l5.293,4.675Z" style="fill:#292929;fill-opacity:0.905882;"/></svg>