<?xml version="1.0" encoding="UTF-8" standalone="no"?><!DOCTYPE svg PUBLIC "-//W3C//DTD SVG 1.1//EN" "http://www.w3.org/Graphics/SVG/1.1/DTD/svg11.dtd"><svg width="100%" height="100%" viewBox="0 0 52 33" version="1.1" xmlns="http://www.w3.org/2000/svg" xmlns:xlink="http://www.w3.org/1999/xlink" xml:space="preserve" xmlns:serif="http://www.serif.com/" style="fill-rule:evenodd;clip-rule:evenodd;stroke-linejoin:round;stroke-miterlimit:1.41421;"><path id="turrets" d="M35.946,14.093l0,0.003l9.956,8.174l5.122,10.225l-7.708,-6.434l-14.013,-7.174l-6.677,0l-14.013,7.174l-7.708,6.434l5.122,-10.225l9.96,-8.177l19.959,0Zm5.562,-0.968l-11.346,0c-2.47,0 -4.475,-2.83 -4.475,-6.315c0,-3.485 2.005,-6.315 4.475,-6.315c0,0 11.346,0 11.346,0c2.47,0 4.475,2.83 4.475,6.315c0,3.485 -2.005,6.315 -4.475,6.315Zm-14.626,-0.295l-11.18,0c-0.164,0 -0.321,-0.065 -0.436,-0.18c-0.116,-0.116 -0.181,-0.273 -0.181,-0.437c0,-0.528 0,-1.204 0,-1.204c0,0 -7.963,0 -10.167,0c-0.309,0 -0.56,-0.25 -0.56,-0.559c0,-1.03 0,-3.218 0,-4.297c0,-0.348 0.282,-0.629 0.629,-0.629c3.377,0 19.206,0 19.206,0c-0.061,0.415 -0.093,0.845 -0.093,1.286c0,2.82 0.973,5.21 2.782,6.02Z" style="fill:#fff;fill-opacity:0.796078;"/></svg>