<?xml version="1.0" encoding="UTF-8" standalone="no"?><!DOCTYPE svg PUBLIC "-//W3C//DTD SVG 1.1//EN" "http://www.w3.org/Graphics/SVG/1.1/DTD/svg11.dtd"><svg width="100%" height="100%" viewBox="0 0 180 180" version="1.1" xmlns="http://www.w3.org/2000/svg" xmlns:xlink="http://www.w3.org/1999/xlink" xml:space="preserve" xmlns:serif="http://www.serif.com/" style="fill-rule:evenodd;clip-rule:evenodd;stroke-linejoin:round;stroke-miterlimit:1.41421;"><path id="pinned-icon" d="M90.166,0c49.614,0 89.834,40.22 89.834,89.834c0,0.055 0,0.111 0,0.166c0,49.706 -40.294,90 -90,90c0,0 0,0 0,0c-49.706,0 -90,-40.294 -90,-90c0,-0.055 0,-0.111 0,-0.166c0,-49.614 40.22,-89.834 89.834,-89.834l0.332,0Zm-0.165,30.77c-4.572,0 -8.905,0.225 -12.202,0.633c-1.819,0.226 -3.249,0.495 -4.373,0.824c-4.779,1.399 -5.295,4.762 -5.295,6.144c0,0.944 0.293,3.945 3.799,5.588l0,9.492c-3.264,1.36 -6.366,3.087 -9.261,5.16c-3.973,2.844 -7.467,6.274 -10.386,10.193c-6.071,8.153 -9.28,17.85 -9.28,28.042c0,10.209 3.219,19.919 9.309,28.081c2.928,3.923 6.432,7.354 10.417,10.197c3.278,2.339 6.82,4.236 10.56,5.659l11.483,30.614c0.817,2.179 2.901,3.623 5.228,3.623c2.327,0 4.411,-1.444 5.228,-3.623l11.483,-30.614c3.74,-1.423 7.282,-3.32 10.56,-5.659c3.984,-2.843 7.489,-6.274 10.417,-10.197c6.09,-8.162 9.309,-17.872 9.309,-28.081c0,-10.192 -3.209,-19.889 -9.28,-28.042c-2.919,-3.919 -6.413,-7.349 -10.386,-10.193c-2.895,-2.073 -5.997,-3.8 -9.261,-5.16l0,-9.492c3.507,-1.643 3.799,-4.645 3.799,-5.588c0,-1.381 -0.515,-4.745 -5.294,-6.144c-1.124,-0.329 -2.555,-0.598 -4.373,-0.824c-3.295,-0.408 -7.628,-0.633 -12.201,-0.633Zm0,5.584c8.995,0 16.286,0.903 16.286,2.016c0,0.493 -1.429,0.944 -3.799,1.295l0,17.685c16.769,5.297 28.927,20.976 28.927,39.496c0,18.551 -12.198,34.252 -29.011,39.523l-12.403,33.067l-12.402,-33.068c-16.813,-5.271 -29.011,-20.972 -29.011,-39.523c0,-18.52 12.157,-34.199 28.926,-39.495l0,-17.686c-2.37,-0.35 -3.799,-0.801 -3.799,-1.294c0,-1.113 7.292,-2.016 16.286,-2.016Zm21.705,74.28c-0.959,0 -1.947,-0.048 -2.965,-0.144c-6.278,-0.589 -13.007,-2.92 -19.516,-5.172c-12.571,-4.353 -24.445,-8.463 -32.311,-0.597c-0.999,0.999 -2.62,0.999 -3.62,0c-0.999,-0.999 -0.999,-2.62 0,-3.619c4.609,-4.609 10.51,-6.508 18.037,-5.804c6.3,0.59 13.046,2.925 19.569,5.183c12.534,4.338 24.372,8.437 32.189,0.621c1,-0.999 2.62,-0.999 3.619,0c1,0.999 1,2.62 0,3.619c-3.964,3.965 -8.893,5.913 -15.002,5.913Zm-4.666,-10.467c-5.222,0 -9.47,-4.247 -9.47,-9.468c0,-5.222 4.248,-9.47 9.47,-9.47c5.221,0 9.469,4.248 9.469,9.47c0,5.221 -4.248,9.468 -9.469,9.468Zm0,-14.284c-2.656,0 -4.816,2.16 -4.816,4.816c0,2.655 2.16,4.815 4.816,4.815c2.655,0 4.816,-2.16 4.816,-4.815c0,-2.656 -2.161,-4.816 -4.816,-4.816Zm-27.928,-8.201c-3.697,0 -6.704,-3.007 -6.704,-6.704c0,-3.696 3.007,-6.704 6.704,-6.704c3.696,0 6.704,3.008 6.704,6.704c0,3.697 -3.007,6.704 -6.704,6.704Zm0,-8.755c-1.131,0 -2.051,0.921 -2.051,2.051c0,1.13 0.92,2.051 2.051,2.051c1.13,0 2.05,-0.921 2.05,-2.051c0,-1.13 -0.919,-2.051 -2.05,-2.051Zm22.12,-45.537c-5.075,0 -9.204,-4.13 -9.204,-9.205c0,-5.075 4.129,-9.205 9.204,-9.205c5.076,0 9.205,4.13 9.205,9.205c0,5.075 -4.129,9.205 -9.205,9.205Zm0,-13.756c-2.509,0 -4.551,2.042 -4.551,4.551c0,2.51 2.042,4.552 4.551,4.552c2.51,0 4.552,-2.042 4.552,-4.552c0,-2.509 -2.042,-4.551 -4.552,-4.551Z" style="fill:#ffbaae;fill-opacity:0.898039;"/></svg>