<?xml version="1.0" encoding="UTF-8" standalone="no"?><!DOCTYPE svg PUBLIC "-//W3C//DTD SVG 1.1//EN" "http://www.w3.org/Graphics/SVG/1.1/DTD/svg11.dtd"><svg width="100%" height="100%" viewBox="0 0 500 500" version="1.1" xmlns="http://www.w3.org/2000/svg" xmlns:xlink="http://www.w3.org/1999/xlink" xml:space="preserve" xmlns:serif="http://www.serif.com/" style="fill-rule:evenodd;clip-rule:evenodd;stroke-linejoin:round;stroke-miterlimit:1.41421;"><g><path d="M500,250c0,-138.071 -111.929,-250 -250,-250c0,0 0,0 0,0c-138.071,0 -250,111.929 -250,250c0,0 0,0 0,0c0,138.071 111.929,250 250,250c69.734,0 139.469,0 187.5,0c34.518,0 62.5,-27.982 62.5,-62.5c0,-48.031 0,-117.766 0,-187.5Z" style="fill:#ffbaae;fill-opacity:0.898039;"/><g><path d="M250.003,130.204c20.085,0 36.368,2.016 36.368,4.503c0,1.101 -3.191,2.108 -8.484,2.89l0,39.493c37.446,11.828 64.595,46.84 64.595,88.196c0,41.426 -27.239,76.488 -64.784,88.258l-27.695,73.842l-27.695,-73.842c-37.544,-11.77 -64.784,-46.832 -64.784,-88.258c0,-41.356 27.148,-76.368 64.595,-88.196l0,-39.493c-5.293,-0.782 -8.484,-1.789 -8.484,-2.89c0,-2.487 16.283,-4.503 36.368,-4.503m0,-12.469c-10.21,0 -19.887,0.502 -27.249,1.414c-4.061,0.503 -7.255,1.104 -9.765,1.839c-10.672,3.124 -11.824,10.635 -11.824,13.721c0,2.108 0.654,8.81 8.483,12.478l0,21.197c-7.288,3.036 -14.215,6.894 -20.68,11.522c-8.872,6.351 -16.674,14.01 -23.192,22.762c-13.557,18.207 -20.723,39.859 -20.723,62.618c0,22.799 7.188,44.483 20.788,62.707c6.538,8.762 14.363,16.423 23.26,22.772c7.32,5.224 15.23,9.46 23.583,12.638l25.641,68.362c1.825,4.866 6.478,8.09 11.675,8.09c5.197,0 9.85,-3.224 11.675,-8.09l25.641,-68.362c8.353,-3.178 16.263,-7.414 23.583,-12.638c8.896,-6.348 16.723,-14.01 23.26,-22.772c13.6,-18.225 20.788,-39.908 20.788,-62.707c0,-22.759 -7.166,-44.411 -20.723,-62.618c-6.518,-8.752 -14.32,-16.411 -23.192,-22.762c-6.464,-4.628 -13.392,-8.486 -20.68,-11.522l0,-21.197c7.83,-3.67 8.484,-10.372 8.484,-12.478c0,-3.084 -1.152,-10.596 -11.824,-13.721c-2.509,-0.735 -5.704,-1.336 -9.765,-1.839c-7.357,-0.912 -17.033,-1.413 -27.244,-1.413Z" style="fill-rule:nonzero;"/><path d="M288.051,272.704c-11.66,0 -21.146,-9.484 -21.146,-21.144c0,-11.66 9.486,-21.146 21.146,-21.146c11.659,0 21.145,9.485 21.145,21.146c0,11.659 -9.486,21.144 -21.145,21.144Zm0,-31.899c-5.93,0 -10.754,4.824 -10.754,10.755c0,5.929 4.824,10.753 10.754,10.753c5.93,0 10.754,-4.824 10.754,-10.753c0,-5.931 -4.825,-10.755 -10.754,-10.755Z" style="fill-rule:nonzero;"/><path d="M225.686,222.493c-8.255,0 -14.97,-6.716 -14.97,-14.971c0,-8.254 6.715,-14.97 14.97,-14.97c8.254,0 14.97,6.716 14.97,14.97c0,8.255 -6.715,14.971 -14.97,14.971Zm0,-19.55c-2.525,0 -4.58,2.055 -4.58,4.579c0,2.524 2.055,4.579 4.58,4.579c2.524,0 4.579,-2.055 4.579,-4.579c0,-2.524 -2.054,-4.579 -4.579,-4.579Z" style="fill-rule:nonzero;"/><path d="M275.082,101.254c-11.333,0 -20.554,-9.221 -20.554,-20.555c0,-11.333 9.221,-20.554 20.554,-20.554c11.334,0 20.555,9.221 20.555,20.554c0,11.334 -9.221,20.555 -20.555,20.555Zm0,-30.717c-5.604,0 -10.163,4.559 -10.163,10.163c0,5.604 4.559,10.164 10.163,10.164c5.604,0 10.164,-4.56 10.164,-10.164c0,-5.604 -4.56,-10.163 -10.164,-10.163Z" style="fill-rule:nonzero;"/><path d="M298.471,296.076c-2.141,0 -4.347,-0.106 -6.62,-0.32c-14.02,-1.317 -29.047,-6.521 -43.581,-11.551c-28.072,-9.719 -54.587,-18.898 -72.154,-1.332c-2.231,2.231 -5.85,2.231 -8.082,0c-2.232,-2.231 -2.232,-5.851 0,-8.082c10.292,-10.292 23.469,-14.532 40.277,-12.96c14.069,1.316 29.132,6.53 43.698,11.573c27.99,9.688 54.426,18.84 71.881,1.387c2.232,-2.231 5.85,-2.231 8.082,0c2.232,2.231 2.232,5.851 0,8.082c-8.853,8.854 -19.86,13.203 -33.501,13.203Z" style="fill-rule:nonzero;"/></g><text x="308.175px" y="439.062px" style="font-family:'HiraMaruPro-W4', 'Hiragino Maru Gothic Pro', sans-serif;font-size:36px;">VainLab</text></g></svg>